<svg width="69" height="69" viewBox="0 0 69 69" fill="none" xmlns="http://www.w3.org/2000/svg">
<g opacity="0.9">
<path d="M19.4063 4.3125C19.4063 4.3125 12.6829 9.35273 12.9376 12.9375C13.1538 15.9792 18.9178 16.3963 19.4063 19.4062C19.6637 20.9927 17.2501 23.7188 17.2501 23.7188C17.2501 23.7188 23.7188 20.2993 23.7188 17.25C23.7188 14.2007 17.9509 13.7491 17.2501 10.7812C16.7279 8.56921 19.4063 4.3125 19.4063 4.3125ZM30.1876 4.3125C30.1876 4.3125 23.4641 9.35273 23.7188 12.9375C23.935 15.9792 29.6991 16.3963 30.1876 19.4062C30.445 20.9927 28.0313 23.7188 28.0313 23.7188C28.0313 23.7188 34.5001 20.2993 34.5001 17.25C34.5001 14.2007 28.7321 13.7491 28.0313 10.7812C27.5091 8.56921 30.1876 4.3125 30.1876 4.3125ZM40.9688 4.3125C40.9688 4.3125 34.2454 9.35273 34.5001 12.9375C34.7163 15.9792 40.4803 16.3963 40.9688 19.4062C41.2262 20.9927 38.8126 23.7188 38.8126 23.7188C38.8126 23.7188 45.2813 20.2993 45.2813 17.25C45.2813 14.2007 39.5134 13.7491 38.8126 10.7812C38.2904 8.56921 40.9688 4.3125 40.9688 4.3125ZM9.87747 27.0879C10.0702 35.7059 12.4303 51.2692 19.9454 59.1621H40.4298C47.9449 51.2692 50.3051 35.7059 50.4977 27.0879H9.87747ZM52.9483 27.1479C52.9232 28.3812 52.8604 29.7424 52.7499 31.1985C56.5089 31.6918 59.4317 34.9234 59.4317 38.8125C59.4317 43.0406 55.9782 46.4941 51.7501 46.4941C51.1711 46.4937 50.594 46.4275 50.0299 46.2967C49.6375 47.5932 49.1976 48.8795 48.7038 50.1389C49.6975 50.404 50.7217 50.5378 51.7501 50.5371C58.2397 50.5371 63.4747 45.3021 63.4747 38.8125C63.4747 32.7274 58.8722 27.7455 52.9483 27.1479ZM5.76307 61.5879C5.96617 62.2877 6.28246 63.0973 6.70037 63.794C7.05575 64.3862 7.46719 64.9 7.83617 65.2198C8.20489 65.5392 8.49033 65.6309 8.62509 65.6309H51.7501C51.8849 65.6309 52.1703 65.5395 52.5391 65.2198C52.9081 64.9 53.3194 64.3862 53.6749 63.794C54.0927 63.0973 54.4092 62.2877 54.6122 61.5879H5.76307Z" fill="#353535"/>
</g>
</svg>
