<svg width="38" height="38" viewBox="0 0 38 38" fill="none" xmlns="http://www.w3.org/2000/svg">
<path d="M19 3.16667L19.443 3.17276C27.9784 3.4076 34.8334 10.4081 34.8334 19C34.8334 27.7242 27.74 34.8333 19 34.8333C10.2759 34.8333 3.16669 27.7242 3.16669 19C3.16669 10.26 10.2759 3.16667 19 3.16667ZM22.135 12.6667C21.66 12.1917 20.9159 12.1917 20.4567 12.6667L14.9309 18.1608C14.7092 18.3825 14.5825 18.6833 14.5825 19C14.5825 19.3167 14.7092 19.6175 14.9309 19.8392L20.4567 25.3333C20.6784 25.5708 20.9792 25.6817 21.28 25.6817C21.5967 25.6817 21.8975 25.5708 22.135 25.3333C22.5942 24.8583 22.5942 24.1142 22.1192 23.655L17.4484 19L22.1192 14.345C22.5942 13.8858 22.5942 13.1258 22.135 12.6667Z" fill="white"/>
</svg>
