<svg width="41" height="41" viewBox="0 0 41 41" fill="none" xmlns="http://www.w3.org/2000/svg">
<rect x="-6.10352e-05" width="41" height="41" rx="6" fill="#555555"/>
<path d="M14.7842 15.341L20.0234 15.341L20.0234 11.5426C20.0234 10.975 20.2692 10.5768 20.7608 10.3481C21.2524 10.1193 21.7161 10.1791 22.1518 10.5275L33.1868 19.5651C33.5143 19.827 33.678 20.1654 33.678 20.5802C33.678 20.9949 33.5143 21.3333 33.1868 21.5953L22.1518 30.6328C21.7152 30.9821 21.2511 31.0424 20.7595 30.8136C20.2679 30.5848 20.0225 30.1862 20.0234 29.6178L20.0234 25.8193L14.7842 25.8193C14.4131 25.8193 14.1018 25.6936 13.8503 25.4421C13.5989 25.1906 13.4736 24.8798 13.4744 24.5096L13.4744 16.6508C13.4744 16.2797 13.6002 15.9684 13.8516 15.7169C14.1031 15.4654 14.414 15.3401 14.7842 15.341ZM8.23525 11.4116C8.23525 11.0405 8.36099 10.7292 8.61247 10.4777C8.86395 10.2262 9.17481 10.1009 9.54504 10.1018C9.91615 10.1018 10.2274 10.2276 10.4789 10.479C10.7304 10.7305 10.8557 11.0414 10.8548 11.4116L10.8548 29.7487C10.8548 30.1198 10.7291 30.4311 10.4776 30.6826C10.2261 30.9341 9.91527 31.0594 9.54504 31.0585C9.17393 31.0585 8.86264 30.9328 8.61116 30.6813C8.35968 30.4298 8.23437 30.119 8.23525 29.7487L8.23525 11.4116Z" fill="black"/>
</svg>
